<?xml version="1.0" encoding="UTF-8"?>
<svg version="1.1" xmlns="http://www.w3.org/2000/svg" width="512" height="512">
<path d="M0 0 C1.30391654 -0.00785502 1.30391654 -0.00785502 2.63417482 -0.01586872 C5.53485019 -0.03082005 8.43534838 -0.03157281 11.33605957 -0.03224182 C13.4211049 -0.0398668 15.50614742 -0.04829488 17.59118652 -0.0574646 C23.24862899 -0.07938842 28.9060174 -0.08820617 34.56349754 -0.09329104 C38.10297152 -0.0969384 41.64243142 -0.10318057 45.18190002 -0.11029243 C57.54449076 -0.13478368 69.90703958 -0.14783725 82.26965332 -0.15138245 C93.76839507 -0.15501307 105.26686914 -0.18487557 116.76552916 -0.22678703 C126.65542873 -0.26156264 136.54523995 -0.27693218 146.43520021 -0.27762848 C152.33390088 -0.27841908 158.23232903 -0.28705751 164.13096619 -0.31562614 C169.68627047 -0.34192993 175.24107874 -0.34394338 180.79641724 -0.3279705 C182.82518095 -0.32616554 184.85397398 -0.33275967 186.88267517 -0.34878922 C203.46939159 -0.47176059 216.82170408 1.45416725 230.1348877 12.27415466 C230.96762207 12.90063904 231.80035645 13.52712341 232.6583252 14.17259216 C241.86968953 21.98917578 247.22189821 33.77164529 250.1348877 45.27415466 C250.38788736 48.63042754 250.38788736 48.63042754 250.3921566 52.19274426 C250.39566268 52.85569174 250.39916875 53.51863923 250.40278107 54.20167604 C250.41205751 56.41490056 250.40718158 58.62785977 250.40231323 60.84109497 C250.4060514 62.44725836 250.41065358 64.05341993 250.41604388 65.65957862 C250.42826888 70.06723051 250.42801399 74.47480647 250.42565513 78.88247144 C250.42524683 83.6385988 250.43628738 88.39470185 250.44577026 93.15081787 C250.46237887 102.46711968 250.46787976 111.78339618 250.46899502 121.09971156 C250.46994563 128.67381662 250.47405657 136.24791334 250.48039627 143.82201576 C250.49800886 165.30151108 250.5072352 186.78098642 250.50573532 208.26048901 C250.50565541 209.41830678 250.5055755 210.57612455 250.50549316 211.76902771 C250.5054114 212.92826124 250.50532964 214.08749476 250.5052454 215.28185657 C250.50443266 234.06506512 250.52356736 252.84819345 250.5517699 271.63137879 C250.58050733 290.92323577 250.59430969 310.21505363 250.59258235 329.50693256 C250.59191871 340.33563646 250.5973995 351.16425629 250.61893845 361.9929409 C250.63716159 371.21364762 250.64148829 380.43423215 250.6279196 389.65494909 C250.6213955 394.35721365 250.62125257 399.05924387 250.6386261 403.76148605 C250.65438668 408.07161286 250.65146284 412.3813201 250.63405783 416.69143686 C250.63099448 418.24526854 250.63459514 419.79913176 250.64577799 421.35292622 C250.75015149 436.89228096 246.7430294 451.86716875 235.9473877 463.59056091 C225.29950732 473.48115669 212.06226321 480.63824325 197.30775452 480.5146637 C196.1717226 480.51722697 196.1717226 480.51722697 195.01274055 480.51984203 C192.49159041 480.5231191 189.97071031 480.51216288 187.44958496 480.50120544 C185.63576768 480.50064094 183.82194995 480.50095865 182.00813293 480.50209045 C177.09544076 480.50266345 172.18284657 480.49091765 167.27017713 480.47694254 C162.1319003 480.46442641 156.99362114 480.46326398 151.85533142 480.46089172 C142.1303183 480.45467956 132.40535022 480.43827228 122.68035692 480.41819274 C111.60665101 480.39582557 100.53294293 480.38483825 89.45922005 480.37480187 C66.68441764 480.35390584 43.90965519 480.31873495 21.1348877 480.27415466 C20.8048877 481.26415466 20.4748877 482.25415466 20.1348877 483.27415466 C14.37444557 482.66779233 9.414744 480.51757187 4.1348877 478.27415466 C4.41203613 477.17458435 4.68918457 476.07501404 4.97473145 474.94212341 C7.00340968 466.7315601 8.82356823 458.7609941 9.1348877 450.27415466 C9.17484863 449.51747498 9.21480957 448.76079529 9.25598145 447.98118591 C9.70933438 432.06049765 6.09162547 417.77933923 0.02941895 403.17259216 C-0.33458008 402.28869812 -0.6985791 401.40480408 -1.0736084 400.49412537 C-1.79195576 398.76497653 -2.52465706 397.04169803 -3.27380371 395.32566833 C-5.35572716 390.36673258 -7.13302728 385.68070086 -5.8651123 380.27415466 C-4.14503447 376.244879 -1.97590409 372.53654178 0.2598877 368.77415466 C0.88282715 367.69424255 1.5057666 366.61433044 2.14758301 365.50169373 C4.12570252 362.08187708 6.12804729 358.67718399 8.1348877 355.27415466 C10.1016878 351.91536208 12.0659869 348.55512412 14.02893066 345.19407654 C15.24375087 343.11919814 16.46392819 341.04744475 17.69006348 338.97923279 C18.24419922 338.04015076 18.79833496 337.10106873 19.3692627 336.13352966 C19.85620605 335.31336365 20.34314941 334.49319763 20.84484863 333.6481781 C23.75960875 328.28422516 24.75178856 324.29327469 23.1348877 318.27415466 C20.65707505 313.41030021 18.29562803 311.09559243 13.1348877 309.27415466 C7.89177243 308.71239231 4.50627576 309.29789045 0.1348877 312.27415466 C-4.99047826 317.98503583 -8.62702226 324.81777507 -12.3560791 331.47358704 C-13.74214694 333.94695349 -15.14091361 336.41305683 -16.5390625 338.87960815 C-17.25732867 340.14683053 -17.97501943 341.41437921 -18.69213867 342.68225098 C-26.81386765 357.03326835 -35.08541665 371.31389325 -43.8651123 385.27415466 C-47.75643285 384.06728133 -51.21032388 382.68145709 -54.7401123 380.64915466 C-55.52128418 380.20313904 -56.30245605 379.75712341 -57.1072998 379.29759216 C-57.68737793 378.95985779 -58.26745605 378.62212341 -58.8651123 378.27415466 C-57.80636156 374.87102728 -56.85609076 372.26062235 -54.8651123 369.27415466 C-54.57129126 367.2996211 -54.57129126 367.2996211 -54.62460327 365.11700439 C-54.62185394 364.271465 -54.61910461 363.4259256 -54.61627197 362.55476379 C-54.62346252 361.63047577 -54.63065308 360.70618774 -54.63806152 359.75389099 C-54.63776947 358.77809586 -54.63747742 357.80230072 -54.63717651 356.79693604 C-54.63857158 353.56659602 -54.65414123 350.33648571 -54.6697998 347.10618591 C-54.6735293 344.86845018 -54.67637657 342.63071281 -54.67837524 340.39297485 C-54.68601666 334.49925743 -54.70566958 328.60563836 -54.7277832 322.71195984 C-54.74823064 316.69950186 -54.75737461 310.68702801 -54.76745605 304.67454529 C-54.78891494 292.87437183 -54.82305707 281.07427142 -54.8651123 269.27415466 C-55.53372032 270.44630524 -55.53372032 270.44630524 -56.21583557 271.64213562 C-57.90756789 274.60725821 -59.59985718 277.57206157 -61.29249573 280.53666687 C-62.01791027 281.80745878 -62.74311759 283.07836902 -63.46809387 284.34941101 C-68.36580215 292.93574233 -73.30927826 301.49297553 -78.3026123 310.02415466 C-79.44752993 311.98747106 -80.59211483 313.95098157 -81.73620605 315.91477966 C-83.65293694 319.20392004 -85.58247265 322.48473709 -87.52526855 325.75852966 C-103.79175077 353.4583642 -106.51164144 381.87773611 -102.8963623 413.34056091 C-102.69389397 415.15078195 -102.49212432 416.96108126 -102.29101562 418.77145386 C-101.76449847 423.4969162 -101.22987251 428.22142263 -100.6930542 432.94572449 C-99.83193064 440.53685002 -98.98346396 448.12940086 -98.13475037 455.72192192 C-97.83806187 458.36563965 -97.53796832 461.00895343 -97.23730469 463.65222168 C-97.05523401 465.26780999 -96.87322386 466.88340511 -96.69128418 468.49900818 C-96.56504921 469.59694199 -96.56504921 469.59694199 -96.43626404 470.71705627 C-96.07576728 473.93832339 -95.8651123 477.02580487 -95.8651123 480.27415466 C-101.4751123 480.60415466 -107.0851123 480.93415466 -112.8651123 481.27415466 C-114.43426065 472.36774917 -115.59325066 463.47960292 -116.55651855 454.48899841 C-116.70793559 453.09757591 -116.85962897 451.70618346 -117.01158142 450.31481934 C-117.3270516 447.41989263 -117.64033378 444.52474137 -117.95178223 441.62937927 C-118.34767957 437.94910213 -118.74739139 434.26925277 -119.14854527 430.58954525 C-119.53585209 427.03533887 -119.92125934 423.48092723 -120.30651855 419.92649841 C-120.44819962 418.62099533 -120.58988068 417.31549225 -120.7358551 415.97042847 C-125.82677337 368.65721644 -114.39041767 335.11071263 -90.60339355 294.64524841 C-86.84390211 288.2494862 -83.13063502 281.82773772 -79.4276123 275.39915466 C-78.81490479 274.33632263 -78.20219727 273.2734906 -77.57092285 272.17845154 C-74.61694619 267.0534428 -71.66524563 261.92712626 -68.7146759 256.80015564 C-67.32851493 254.39197992 -65.94158481 251.98424767 -64.55453491 249.57658386 C-63.57271933 247.87157233 -62.59207246 246.16588796 -61.6114502 244.46018982 C-60.72187622 242.91597351 -60.72187622 242.91597351 -59.81433105 241.34056091 C-59.29185791 240.43249695 -58.76938477 239.52443298 -58.2310791 238.58885193 C-57.16533265 236.78289266 -56.02830478 235.01894338 -54.8651123 233.27415466 C-54.67293563 230.76460357 -54.59717924 228.36643668 -54.61355591 225.85693359 C-54.61058577 225.09512927 -54.60761563 224.33332494 -54.60455549 223.54843563 C-54.59689781 220.98761319 -54.60341688 218.42701893 -54.60974121 215.86619568 C-54.60699199 214.03302861 -54.60331251 212.19986273 -54.59877014 210.36669922 C-54.59064746 206.41342117 -54.58849245 202.46019972 -54.59071732 198.50691414 C-54.59354825 192.24861145 -54.57920452 185.99042189 -54.56173706 179.73214722 C-54.51469568 161.93374854 -54.49078445 144.13535685 -54.48425293 126.3368988 C-54.48049486 116.51100561 -54.46240119 106.68523978 -54.42915857 96.85940117 C-54.40899806 90.64649723 -54.40654886 84.433923 -54.41743875 78.22099984 C-54.42005791 74.34059973 -54.40598223 70.46038887 -54.38735771 66.58003807 C-54.38206373 64.79030678 -54.38348429 63.00054001 -54.39239311 61.21082306 C-54.46728219 44.83512707 -51.18567213 29.45478213 -39.6776123 16.95774841 C-28.53368969 6.60638926 -15.27277877 -0.04598897 0 0 Z M-28.1151123 29.95384216 C-36.12355653 40.57218116 -37.8651123 51.26392573 -37.8651123 64.27415466 C51.8948877 64.27415466 141.6548877 64.27415466 234.1348877 64.27415466 C233.06094231 47.09102848 231.5351535 36.98424504 219.3223877 25.52415466 C206.8009294 15.13300118 190.73434585 15.97768832 175.3380127 16.0153656 C173.46410995 16.01265074 171.59020828 16.00908704 169.71630859 16.00474548 C164.6584966 15.99567808 159.6007668 15.99914231 154.54295349 16.00550365 C149.2314737 16.01059303 143.9200006 16.00586407 138.60852051 16.00273132 C129.69151557 15.99910021 120.77454384 16.00386831 111.85754395 16.01341248 C101.57148705 16.02429536 91.28550947 16.02076918 80.9994545 16.00975966 C72.14304046 16.0006624 63.2866502 15.99941343 54.430233 16.004637 C49.15163627 16.0077433 43.87307672 16.00820306 38.59448242 16.00156403 C33.63019629 15.99575562 28.6660117 15.99985102 23.70173645 16.01135254 C21.88780383 16.01398051 20.07386256 16.01326618 18.25993347 16.00882721 C1.20421988 15.97096058 -15.75388104 16.4079929 -28.1151123 29.95384216 Z M-37.8651123 80.27415466 C-37.8651123 165.74415466 -37.8651123 251.21415466 -37.8651123 339.27415466 C-34.80413003 335.44792682 -32.55292535 332.16842945 -30.22058105 327.94212341 C-29.53661623 326.71865957 -28.85236215 325.49535739 -28.16784668 324.27220154 C-27.11119285 322.37217914 -26.05755106 320.47062949 -25.00939941 318.56590271 C-14.32695394 299.20066897 -14.32695394 299.20066897 -5.6776123 295.33665466 C-4.44978027 294.76624451 -4.44978027 294.76624451 -3.19714355 294.18431091 C5.5905766 290.75459769 14.94382687 291.39688185 23.5958252 294.94993591 C31.21773161 298.92505326 36.83252643 305.19881393 39.88098145 313.24290466 C42.72466356 323.12715147 41.11481791 332.33724148 36.54968262 341.43235779 C34.94764509 344.31994457 33.31602356 347.18163118 31.63925171 350.02601624 C30.55432387 351.86731186 29.48398002 353.71646589 28.41638184 355.56785583 C25.29250486 360.96927571 22.12124238 366.33648812 18.8223877 371.63352966 C18.35002686 372.40108582 17.87766602 373.16864197 17.39099121 373.9594574 C16.54181616 375.32936338 15.67623338 376.68930129 14.79089355 378.03611755 C12.93918279 381.02216639 12.13857291 383.06507993 12.07629395 386.59837341 C13.36545707 391.49454378 13.36545707 391.49454378 18.1348877 400.27415466 C89.4148877 400.27415466 160.6948877 400.27415466 234.1348877 400.27415466 C234.1348877 294.67415466 234.1348877 189.07415466 234.1348877 80.27415466 C144.3748877 80.27415466 54.6148877 80.27415466 -37.8651123 80.27415466 Z M24.1348877 416.27415466 C24.4648877 419.57415466 24.7948877 422.87415466 25.1348877 426.27415466 C25.21113634 429.37952414 25.25309126 432.45962975 25.23254395 435.56321716 C25.231129 436.3925174 25.22971405 437.22181763 25.22825623 438.07624817 C25.22272947 440.68392287 25.2101916 443.29150661 25.1973877 445.89915466 C25.1923632 447.68430966 25.18780197 449.46946602 25.18371582 451.25462341 C25.1727842 455.59450137 25.15557179 459.93431268 25.1348877 464.27415466 C46.96249222 464.32095099 68.79008843 464.35618086 90.617733 464.37777901 C100.7535139 464.38807557 110.88926357 464.40210486 121.02502441 464.42503357 C129.86310194 464.44501712 138.70115684 464.45788286 147.53925633 464.46233165 C152.21553809 464.46493064 156.89175512 464.47100544 161.56801605 464.48561478 C165.97728513 464.49927725 170.38646334 464.50335993 174.79575157 464.50037003 C176.40649854 464.50091634 178.01724883 464.50484183 179.62797737 464.51256561 C196.30623369 464.58855989 210.41077584 463.41192773 223.09191895 451.51634216 C232.67850124 440.99493062 233.23778375 430.62781785 234.1348877 416.27415466 C164.8348877 416.27415466 95.5348877 416.27415466 24.1348877 416.27415466 Z " fill="#4859a2" transform="translate(157.8651123046875,15.725845336914063)"/>
<path d="M0 0 C0.85078125 0.48339844 1.7015625 0.96679688 2.578125 1.46484375 C22.6099136 13.89464064 35.36593763 34.43191967 41 57 C44.4637853 72.03161172 43.5381977 90.62233367 38 105 C37.61457031 106.05832031 37.22914063 107.11664063 36.83203125 108.20703125 C28.07414524 130.73945643 11.23638586 147.9371987 -10.8125 157.75 C-12.86221669 158.53426255 -14.92577061 159.28307693 -17 160 C-18.12019531 160.39316406 -19.24039063 160.78632813 -20.39453125 161.19140625 C-42.13619427 167.72528823 -66.39278978 165.59068293 -86.46191406 155.13256836 C-108.5666505 143.08022397 -123.84051442 124.84103006 -131.4375 100.875 C-136.39081142 83.77163771 -135.87913696 63.78648316 -130 47 C-129.649375 45.96359375 -129.29875 44.9271875 -128.9375 43.859375 C-120.13632145 20.51180412 -102.39066308 3.98573592 -79.98681641 -6.15869141 C-53.67849064 -17.29883525 -24.32145977 -13.93150283 0 0 Z M-98.125 26.75 C-112.32583286 41.34713518 -117.43345621 59.23628663 -117.43823242 79.11010742 C-117.27462627 88.14880669 -115.4723597 95.70278691 -112 104 C-111.61585938 104.93972656 -111.23171875 105.87945312 -110.8359375 106.84765625 C-107.88661539 113.33817124 -103.69449039 118.67503359 -99 124 C-98.32066406 124.77472656 -97.64132813 125.54945313 -96.94140625 126.34765625 C-83.8405638 140.36195193 -65.94787057 146.95034418 -47.08447266 147.96142578 C-28.64410247 148.30267414 -10.45352577 140.89369221 2.82104492 128.25073242 C17.51711693 113.73648775 25.16958934 96.93218997 25.4375 76.1875 C25.3287255 55.69127579 17.80773046 39.24111922 3.8125 24.4375 C-25.79001828 -4.16830049 -69.23015448 -0.79176363 -98.125 26.75 Z " fill="#4859a2" transform="translate(302,172)"/>
<path d="M0 0 C5.77991348 3.73994402 8.89456219 8.43388887 11 15 C12.37330383 24.03722523 10.65426547 30.27581309 6 38 C3.44551945 41.20292167 0.61943449 44.06052062 -2.30078125 46.9296875 C-3.09598679 47.72730499 -3.89119232 48.52492249 -4.710495 49.34671021 C-6.3828974 51.01813926 -8.06145645 52.68342882 -9.74584961 54.34277344 C-12.31073361 56.8732573 -14.85065428 59.42697573 -17.38867188 61.984375 C-19.02461103 63.61341712 -20.66193499 65.24107001 -22.30078125 66.8671875 C-23.42931267 68.00315872 -23.42931267 68.00315872 -24.5806427 69.16207886 C-31.11705601 75.55552361 -37.43012392 79.62238128 -46.6875 80.25 C-57.07625733 80.00036258 -62.8345005 75.09445348 -70 68 C-71.1262855 66.93220113 -72.25395809 65.86586395 -73.3828125 64.80078125 C-74.54822467 63.68109059 -75.71229936 62.56000609 -76.875 61.4375 C-77.4225293 60.92010254 -77.97005859 60.40270508 -78.53417969 59.86962891 C-83.9862859 54.49319968 -88.08167112 47.70229275 -88.25 39.875 C-88.15478585 33.36869958 -86.42584259 28.18070042 -82.875 22.75 C-76.78923302 16.92883159 -71.98362516 14.68410461 -63.4375 14.4375 C-57.11518446 14.62121458 -53.41338038 15.93582243 -48 19 C-44.72230386 17.90958375 -42.7707044 15.94697751 -40.4609375 13.4453125 C-39.79707031 12.74792969 -39.13320312 12.05054688 -38.44921875 11.33203125 C-37.08127378 9.87649658 -35.72166234 8.41307846 -34.37109375 6.94140625 C-25.02809343 -2.79611616 -12.39406692 -6.58518458 0 0 Z M-21.73046875 19.1796875 C-22.24756912 19.70764923 -22.76466949 20.23561096 -23.29743958 20.77957153 C-24.94221435 22.46443244 -26.56510259 24.16860665 -28.1875 25.875 C-29.82475966 27.56974534 -31.46623151 29.26027713 -33.10969543 30.94900513 C-34.12932173 31.99965263 -35.14456319 33.05457781 -36.15483093 34.11422729 C-41.6480768 39.83918655 -41.6480768 39.83918655 -44.9375 40.23046875 C-45.9584375 40.20919922 -45.9584375 40.20919922 -47 40.1875 C-47.680625 40.18105469 -48.36125 40.17460937 -49.0625 40.16796875 C-51 40 -51 40 -54 39 C-54.28875 38.401875 -54.5775 37.80375 -54.875 37.1875 C-56.42151617 34.18038522 -58.15723 32.80903546 -61 31 C-64.66322334 30.40192272 -66.26456309 30.51615993 -69.375 32.5625 C-71.61347923 35.92021885 -71.39329594 38.01980258 -71 42 C-69.31501478 44.71970441 -69.31501478 44.71970441 -66.8359375 47.0234375 C-65.96066406 47.89871094 -65.08539063 48.77398437 -64.18359375 49.67578125 C-63.25675781 50.56652344 -62.32992187 51.45726562 -61.375 52.375 C-60.47136719 53.28894531 -59.56773437 54.20289063 -58.63671875 55.14453125 C-53.91957724 59.88663856 -53.91957724 59.88663856 -48.18994141 63.20166016 C-43.056705 62.87714973 -40.51492283 59.51702657 -37 56 C-35.74977778 54.82242017 -34.49849752 53.64596251 -33.24609375 52.47070312 C-29.85930082 49.20691028 -26.50146895 45.91372117 -23.15185547 42.61181641 C-21.70997143 41.19676116 -20.26097209 39.78892198 -18.80517578 38.38818359 C-16.68642296 36.34834326 -14.59138794 34.28659251 -12.5 32.21875 C-11.84700928 31.59875122 -11.19401855 30.97875244 -10.52124023 30.33996582 C-7.36893761 27.17335978 -6.10144723 25.75890332 -5.4921875 21.20117188 C-5.77684746 17.96725153 -5.77684746 17.96725153 -7.625 15.5625 C-13.54408529 11.66836494 -17.46378341 14.61271994 -21.73046875 19.1796875 Z " fill="#4859a2" transform="translate(295,210)"/>
<path d="M0 0 C0.79339783 0.00565979 1.58679565 0.01131958 2.40423584 0.01715088 C4.93156973 0.03949353 7.45747165 0.08968324 9.984375 0.140625 C11.70050032 0.16069286 13.41664792 0.17894313 15.1328125 0.1953125 C19.33432513 0.23594608 23.53275267 0.31423187 27.734375 0.390625 C27.734375 5.670625 27.734375 10.950625 27.734375 16.390625 C19.814375 16.390625 11.894375 16.390625 3.734375 16.390625 C3.734375 24.310625 3.734375 32.230625 3.734375 40.390625 C-1.545625 40.390625 -6.825625 40.390625 -12.265625 40.390625 C-12.35752722 35.33600272 -12.43713721 30.28428477 -12.48535156 25.22949219 C-12.50545128 23.51064221 -12.53273589 21.79186048 -12.56738281 20.07324219 C-12.61597534 17.60074011 -12.63860935 15.1291429 -12.65625 12.65625 C-12.67689514 11.88943909 -12.69754028 11.12262817 -12.71881104 10.33258057 C-12.72020483 7.0089319 -12.49276102 4.76604672 -10.7578125 1.8984375 C-7.23125424 -0.23518552 -3.99445762 -0.1075443 0 0 Z " fill="#4859a2" transform="translate(148.265625,111.609375)"/>
<path d="M0 0 C15.84 0 31.68 0 48 0 C48 5.28 48 10.56 48 16 C32.16 16 16.32 16 0 16 C0 10.72 0 5.44 0 0 Z " fill="#4859a2" transform="translate(232,48)"/>
<path d="M0 0 C10.56 0 21.12 0 32 0 C32 5.28 32 10.56 32 16 C21.44 16 10.88 16 0 16 C0 10.72 0 5.44 0 0 Z " fill="#4859a2" transform="translate(240,448)"/>
<path d="M0 0 C5.28 0 10.56 0 16 0 C16 5.28 16 10.56 16 16 C10.72 16 5.44 16 0 16 C0 10.72 0 5.44 0 0 Z " fill="#4859a2" transform="translate(136,168)"/>
<path d="M0 0 C5.28 0 10.56 0 16 0 C16 5.28 16 10.56 16 16 C10.72 16 5.44 16 0 16 C0 10.72 0 5.44 0 0 Z " fill="#4859a2" transform="translate(200,48)"/>
</svg>
