<?xml version="1.0" standalone="no"?>
<!DOCTYPE svg PUBLIC "-//W3C//DTD SVG 20010904//EN"
 "http://www.w3.org/TR/2001/REC-SVG-20010904/DTD/svg10.dtd">
<svg version="1.0" xmlns="http://www.w3.org/2000/svg"
 width="512.000000pt" height="512.000000pt" viewBox="0 0 512.000000 512.000000"
 preserveAspectRatio="xMidYMid meet">

<g transform="translate(0.000000,512.000000) scale(0.100000,-0.100000)"
fill="#4859a2" stroke="none">
<path d="M2125 5105 c-184 -35 -329 -116 -461 -258 -76 -81 -123 -155 -160
-245 -48 -119 -59 -179 -59 -322 1 -153 20 -240 81 -368 28 -58 42 -76 70 -90
34 -16 37 -15 72 3 59 32 63 68 19 163 -50 107 -67 180 -67 292 0 179 55 319
172 445 128 138 269 204 449 213 134 6 230 -14 340 -70 314 -161 445 -548 294
-866 -48 -102 -45 -150 12 -180 59 -32 112 11 162 132 47 113 64 203 63 336 0
141 -23 237 -86 365 -165 334 -536 519 -901 450z"/>
<path d="M3805 4778 c-32 -18 -44 -40 -45 -78 0 -32 13 -48 147 -182 l148
-148 -351 0 c-335 0 -352 -1 -377 -20 -31 -25 -42 -65 -26 -102 23 -56 36 -58
406 -58 l337 0 -142 -143 c-135 -137 -142 -145 -142 -184 0 -51 35 -87 86 -87
33 0 52 17 270 235 224 225 234 236 234 273 0 37 -10 49 -202 244 -262 264
-287 282 -343 250z"/>
<path d="M2185 4666 c-119 -29 -213 -107 -268 -224 l-32 -67 -5 -1118 c-5
-1093 -5 -1119 -24 -1133 -21 -15 -54 -18 -80 -8 -8 3 -81 121 -162 261 -81
140 -166 279 -190 308 -95 116 -269 197 -424 198 -255 2 -431 -127 -406 -296
7 -44 60 -139 828 -1466 131 -227 263 -446 293 -487 169 -229 408 -414 669
-518 841 -338 1780 98 2065 961 75 225 75 222 79 1016 2 480 0 725 -8 760 -34
167 -154 284 -324 318 -71 15 -167 1 -241 -36 -29 -14 -54 -25 -57 -25 -3 0
-9 12 -13 28 -3 15 -20 48 -36 74 -113 177 -339 236 -525 137 -31 -17 -57 -29
-58 -27 -47 100 -109 168 -189 208 -108 52 -251 55 -349 7 l-48 -24 0 371 c0
204 -5 403 -10 443 -31 239 -254 395 -485 339z m196 -194 c39 -20 62 -41 84
-77 l30 -48 5 -870 5 -869 28 -24 c30 -26 52 -29 91 -14 48 18 51 33 56 371
l5 316 27 41 c41 61 109 97 183 97 90 -1 156 -41 198 -120 21 -38 22 -55 25
-340 1 -165 5 -310 7 -323 7 -29 64 -57 99 -48 14 3 35 16 46 28 19 20 20 35
20 223 0 236 9 280 67 337 89 87 221 91 306 10 60 -56 62 -65 67 -339 5 -249
5 -252 29 -277 30 -32 87 -35 122 -7 23 18 24 27 29 163 6 154 13 178 67 232
86 87 222 87 310 0 23 -23 47 -59 53 -81 8 -27 10 -243 7 -768 -4 -799 -2
-771 -67 -965 -117 -351 -388 -652 -730 -814 -198 -94 -392 -131 -630 -123
-216 8 -387 50 -564 139 -200 100 -388 260 -511 433 -80 112 -1076 1848 -1073
1869 5 32 99 75 179 82 119 12 237 -31 318 -116 29 -29 96 -135 180 -281 169
-295 181 -313 239 -346 40 -24 58 -28 123 -28 67 0 81 4 124 30 59 37 100 93
114 158 7 32 11 410 11 1128 0 883 2 1085 13 1112 52 123 189 171 308 109z"/>
</g>
</svg>
